<svg width="138" height="46" viewBox="0 0 138 46" fill="none" xmlns="http://www.w3.org/2000/svg">
<path d="M59.9708 17.6752C60.2885 17.6752 60.5934 17.6434 60.8856 17.5799C61.1778 17.5163 61.47 17.4401 61.7623 17.3512V19.4666C61.4573 19.5936 61.0762 19.7016 60.6188 19.7906C60.1741 19.8922 59.685 19.943 59.1514 19.943C58.5288 19.943 57.9698 19.8414 57.4743 19.6381C56.9915 19.4348 56.604 19.0854 56.3118 18.5899C56.0323 18.0817 55.8925 17.3829 55.8925 16.4936V11.4814H54.5394V10.2808L56.1021 9.32789L56.9216 7.13626H58.7321V9.34695H61.6479V11.4814H58.7321V16.4936C58.7321 16.8874 58.8464 17.186 59.0751 17.3893C59.3038 17.5799 59.6024 17.6752 59.9708 17.6752ZM66.4999 8.22255C66.4999 8.73075 66.4808 9.2199 66.4427 9.68999C66.4173 10.1601 66.3919 10.4904 66.3665 10.681H66.5189C66.7476 10.3252 67.0144 10.0394 67.3194 9.82339C67.6243 9.5947 67.961 9.42953 68.3294 9.32789C68.7106 9.21355 69.1108 9.15637 69.53 9.15637C70.2796 9.15637 70.934 9.28978 71.493 9.55659C72.052 9.82339 72.484 10.2363 72.7889 10.7953C73.1065 11.3544 73.2654 12.0786 73.2654 12.9679V19.7524H70.4258V13.673C70.4258 12.9234 70.286 12.3644 70.0065 11.996C69.7397 11.6148 69.3204 11.4242 68.7487 11.4242C68.177 11.4242 67.7259 11.5576 67.3956 11.8244C67.078 12.0913 66.8493 12.4788 66.7095 12.987C66.5698 13.4952 66.4999 14.1177 66.4999 14.8546V19.7524H63.6603V5.26861H66.4999V8.22255ZM80.2829 9.15637C81.2485 9.15637 82.0743 9.3406 82.7604 9.70905C83.4592 10.0775 83.9991 10.6111 84.3803 11.3099C84.7614 12.0087 84.952 12.8663 84.952 13.8827V15.2548H78.2437C78.2691 16.0553 78.5042 16.6842 78.9489 17.1415C79.4062 17.5989 80.0351 17.8276 80.8356 17.8276C81.5089 17.8276 82.1188 17.7641 82.6651 17.637C83.2114 17.4973 83.7768 17.2876 84.3612 17.0081V19.1998C83.853 19.4539 83.3131 19.6381 82.7413 19.7524C82.1823 19.8795 81.5026 19.943 80.7022 19.943C79.6603 19.943 78.7392 19.7524 77.9388 19.3713C77.1384 18.9774 76.5095 18.3866 76.0521 17.5989C75.5947 16.8112 75.366 15.8202 75.366 14.6259C75.366 13.4062 75.5693 12.3962 75.9759 11.5958C76.3951 10.7826 76.9732 10.1728 77.7101 9.76622C78.447 9.35966 79.3046 9.15637 80.2829 9.15637ZM80.3019 11.1765C79.7556 11.1765 79.2982 11.3544 78.9298 11.7101C78.5741 12.0658 78.3644 12.6185 78.3009 13.3681H82.2839C82.2839 12.9489 82.2077 12.5741 82.0553 12.2437C81.9155 11.9134 81.6995 11.6529 81.4073 11.4624C81.1151 11.2718 80.7466 11.1765 80.3019 11.1765ZM58.4272 28.6418C58.4272 29.0357 58.4145 29.4232 58.3891 29.8043C58.3636 30.1855 58.3382 30.4841 58.3128 30.7H58.4272C58.7067 30.2681 59.0815 29.906 59.5516 29.6138C60.0217 29.3088 60.6315 29.1564 61.3811 29.1564C62.55 29.1564 63.4965 29.6138 64.2207 30.5285C64.9449 31.4306 65.307 32.7646 65.307 34.5306C65.307 35.7122 65.1355 36.7096 64.7924 37.5227C64.4621 38.3231 63.9984 38.9266 63.4012 39.3332C62.8041 39.7397 62.1053 39.943 61.3049 39.943C60.5426 39.943 59.9391 39.8096 59.4944 39.5428C59.0624 39.2633 58.7067 38.952 58.4272 38.609H58.2366L57.7601 39.7524H55.5876V25.2686H58.4272V28.6418ZM60.4663 31.4242C59.9708 31.4242 59.577 31.5259 59.2848 31.7292C58.9925 31.9324 58.7766 32.2437 58.6368 32.663C58.5097 33.0696 58.4399 33.5841 58.4272 34.2067V34.5116C58.4272 35.5153 58.5733 36.2903 58.8655 36.8366C59.1704 37.3702 59.7167 37.637 60.5045 37.637C61.0889 37.637 61.5526 37.3702 61.8957 36.8366C62.2387 36.2903 62.4102 35.5089 62.4102 34.4925C62.4102 33.4761 62.2323 32.7138 61.8766 32.2056C61.5336 31.6847 61.0635 31.4242 60.4663 31.4242ZM77.0048 29.347V39.7524H74.8322L74.4511 38.4184H74.2986C74.0826 38.7741 73.8031 39.0664 73.4601 39.2951C73.1298 39.511 72.7613 39.6699 72.3548 39.7715C71.9482 39.8858 71.5289 39.943 71.0969 39.943C70.36 39.943 69.7121 39.8096 69.1531 39.5428C68.594 39.276 68.1621 38.8631 67.8571 38.3041C67.5522 37.745 67.3998 37.0208 67.3998 36.1315V29.347H70.2394V35.4263C70.2394 36.1632 70.3728 36.7223 70.6396 37.1034C70.9064 37.4846 71.332 37.6752 71.9164 37.6752C72.5009 37.6752 72.9519 37.5418 73.2695 37.2749C73.5999 37.0081 73.8285 36.6206 73.9556 36.1124C74.0954 35.6042 74.1652 34.9817 74.1652 34.2448V29.347H77.0048ZM87.0335 39.7524H78.8196V38.0754L83.6412 31.5195H79.1055V29.347H86.862V31.1955L82.1738 37.5799H87.0335V39.7524ZM96.1484 39.7524H87.9345V38.0754L92.7561 31.5195H88.2204V29.347H95.9769V31.1955L91.2887 37.5799H96.1484V39.7524Z" fill="#1E1E1E"/>
<path d="M91.6468 19.7524L87.6828 9.34695H90.6558L92.6568 15.2739C92.7331 15.5026 92.7966 15.744 92.8474 15.9981C92.9109 16.2522 92.9554 16.4999 92.9808 16.7413C93.0189 16.9827 93.0443 17.2051 93.057 17.4083H93.1333C93.146 17.1924 93.1714 16.9637 93.2095 16.7223C93.2476 16.4809 93.2921 16.2395 93.3429 15.9981C93.4064 15.744 93.4763 15.5026 93.5525 15.2739L95.5536 9.34695H98.5266L94.5626 19.7524H91.6468ZM102.669 9.34695V19.7524H99.8289V9.34695H102.669ZM101.258 5.26861C101.678 5.26861 102.04 5.37025 102.345 5.57353C102.649 5.76411 102.802 6.1262 102.802 6.65982C102.802 7.18073 102.649 7.54283 102.345 7.74611C102.04 7.94939 101.678 8.05103 101.258 8.05103C100.826 8.05103 100.458 7.94939 100.153 7.74611C99.8607 7.54283 99.7146 7.18073 99.7146 6.65982C99.7146 6.1262 99.8607 5.76411 100.153 5.57353C100.458 5.37025 100.826 5.26861 101.258 5.26861ZM108.285 8.64182C108.285 9.03568 108.272 9.42318 108.246 9.80434C108.221 10.1855 108.196 10.4841 108.17 10.7H108.285C108.564 10.2681 108.939 9.90598 109.409 9.61376C109.879 9.30884 110.489 9.15637 111.239 9.15637C112.407 9.15637 113.354 9.61376 114.078 10.5285C114.802 11.4306 115.164 12.7646 115.164 14.5306C115.164 15.7122 114.993 16.7096 114.65 17.5227C114.319 18.3231 113.856 18.9266 113.259 19.3332C112.661 19.7397 111.963 19.943 111.162 19.943C110.4 19.943 109.796 19.8096 109.352 19.5428C108.92 19.2633 108.564 18.952 108.285 18.609H108.094L107.618 19.7524H105.445V5.26861H108.285V8.64182ZM110.324 11.4242C109.828 11.4242 109.434 11.5259 109.142 11.7292C108.85 11.9324 108.634 12.2437 108.494 12.663C108.367 13.0696 108.297 13.5841 108.285 14.2067V14.5116C108.285 15.5153 108.431 16.2903 108.723 16.8366C109.028 17.3702 109.574 17.637 110.362 17.637C110.946 17.637 111.41 17.3702 111.753 16.8366C112.096 16.2903 112.268 15.5089 112.268 14.4925C112.268 13.4761 112.09 12.7138 111.734 12.2056C111.391 11.6847 110.921 11.4242 110.324 11.4242ZM121.602 9.15637C122.568 9.15637 123.394 9.3406 124.08 9.70905C124.779 10.0775 125.319 10.6111 125.7 11.3099C126.081 12.0087 126.271 12.8663 126.271 13.8827V15.2548H119.563C119.589 16.0553 119.824 16.6842 120.268 17.1415C120.726 17.5989 121.355 17.8276 122.155 17.8276C122.828 17.8276 123.438 17.7641 123.985 17.637C124.531 17.4973 125.096 17.2876 125.681 17.0081V19.1998C125.172 19.4539 124.632 19.6381 124.061 19.7524C123.502 19.8795 122.822 19.943 122.022 19.943C120.98 19.943 120.059 19.7524 119.258 19.3713C118.458 18.9774 117.829 18.3866 117.372 17.5989C116.914 16.8112 116.685 15.8202 116.685 14.6259C116.685 13.4062 116.889 12.3962 117.295 11.5958C117.715 10.7826 118.293 10.1728 119.03 9.76622C119.766 9.35966 120.624 9.15637 121.602 9.15637ZM121.621 11.1765C121.075 11.1765 120.618 11.3544 120.249 11.7101C119.893 12.0658 119.684 12.6185 119.62 13.3681H123.603C123.603 12.9489 123.527 12.5741 123.375 12.2437C123.235 11.9134 123.019 11.6529 122.727 11.4624C122.434 11.2718 122.066 11.1765 121.621 11.1765ZM135.644 16.6651C135.644 17.3639 135.479 17.961 135.149 18.4565C134.819 18.9393 134.323 19.3078 133.662 19.5619C133.002 19.816 132.182 19.943 131.204 19.943C130.48 19.943 129.857 19.8922 129.336 19.7906C128.815 19.7016 128.294 19.5492 127.774 19.3332V16.9891C128.333 17.2432 128.936 17.4528 129.584 17.618C130.232 17.7831 130.804 17.8657 131.299 17.8657C131.858 17.8657 132.252 17.7831 132.481 17.618C132.722 17.4528 132.843 17.2368 132.843 16.97C132.843 16.7921 132.792 16.6333 132.69 16.4936C132.602 16.3538 132.398 16.195 132.081 16.0171C131.763 15.8393 131.267 15.6106 130.594 15.3311C129.946 15.0515 129.413 14.7784 128.993 14.5116C128.574 14.2321 128.263 13.9017 128.059 13.5206C127.856 13.1267 127.755 12.6376 127.755 12.0531C127.755 11.0876 128.129 10.3634 128.879 9.88057C129.629 9.39777 130.626 9.15637 131.871 9.15637C132.519 9.15637 133.135 9.2199 133.72 9.34695C134.304 9.474 134.907 9.68364 135.53 9.97586L134.672 12.015C134.329 11.8626 133.999 11.7292 133.681 11.6148C133.364 11.5005 133.053 11.4115 132.748 11.348C132.455 11.2845 132.15 11.2527 131.833 11.2527C131.414 11.2527 131.096 11.3099 130.88 11.4242C130.677 11.5386 130.575 11.7101 130.575 11.9388C130.575 12.104 130.626 12.2564 130.728 12.3962C130.842 12.5232 131.051 12.663 131.356 12.8154C131.674 12.9679 132.138 13.1712 132.748 13.4253C133.345 13.6667 133.859 13.9208 134.291 14.1876C134.723 14.4417 135.054 14.7657 135.282 15.1595C135.524 15.5407 135.644 16.0425 135.644 16.6651Z" fill="#FF3701"/>
<circle cx="23.1324" cy="22.897" r="21.7239" fill="white" stroke="#BCBCBC" stroke-width="1.02008"/>
<path d="M34.7838 14.737C34.3642 14.0065 33.612 13.5703 32.7697 13.5703H29.6562C28.8812 13.5703 28.16 13.9547 27.728 14.5981L26.093 17.034C26.236 17.0889 26.3531 17.1749 26.4432 17.2827C26.4557 17.2941 26.4691 17.3044 26.4805 17.3169L28.1258 14.8654C28.4688 14.3546 29.0407 14.05 29.6562 14.05H32.7697C33.4379 14.05 34.0358 14.3961 34.3684 14.9753C34.701 15.5545 34.6989 16.2455 34.3611 16.8226L25.806 31.47L18.2311 18.6358C18.3968 18.4659 18.4984 18.2348 18.4984 17.9789C18.4984 17.4588 18.0767 17.0371 17.5566 17.0371C17.0364 17.0371 16.6147 17.4588 16.6147 17.9789C16.6147 18.4991 17.0364 18.9207 17.5566 18.9207C17.6477 18.9207 17.7358 18.9073 17.8197 18.8824L25.8081 32.417L34.7745 17.0641C35.1993 16.3367 35.2024 15.4664 34.7828 14.7359L34.7838 14.737Z" fill="#FF1E00"/>
<path d="M14.0899 16.9738C13.7957 16.4671 13.9904 16.0185 14.0878 15.8496C14.1852 15.6807 14.4753 15.287 15.0618 15.287H18.2955C18.6975 15.287 19.0715 15.5046 19.2715 15.8538L25.7585 27.2188L30.6976 18.5248C31.0613 17.8856 30.5992 17.0919 29.8635 17.0919C29.5185 17.0919 29.1994 17.2774 29.0295 17.5778L25.7554 23.3417L20.9386 14.9026C20.3987 13.9567 19.3865 13.3682 18.2965 13.3682H15.0939C14.007 13.3682 12.9896 13.9328 12.4394 14.8705C11.8768 15.8289 11.8747 16.9779 12.4311 17.9374L22.5683 35.4102C22.9424 36.0557 23.878 36.0453 24.2385 35.3916C24.4012 35.0963 24.3971 34.7388 24.2282 34.4466L14.091 16.9738H14.0899Z" fill="#FF1E00"/>
<path fill-rule="evenodd" clip-rule="evenodd" d="M25.977 17.5931V17.5962L25.9791 17.5983C25.9728 17.6107 25.9718 17.6097 25.9625 17.6221L25.7967 17.85C25.6392 18.0707 25.4693 18.2935 25.3118 18.5142L25.1906 18.6789C25.1709 18.7069 25.1491 18.7338 25.1305 18.7618L25.0093 18.9266L25.001 18.938L25.0093 18.9348C25.0787 18.8986 25.1502 18.8634 25.2217 18.8261C25.2579 18.8074 25.2911 18.7908 25.3274 18.7711C25.346 18.7608 25.4196 18.7214 25.4351 18.7173L25.9086 18.4717C25.9262 18.4624 25.9646 18.4458 25.978 18.4354V17.6097C25.9936 17.6055 25.9873 17.6097 26.0122 17.6418L26.1013 17.763C26.1428 17.8159 26.1801 17.8728 26.2205 17.9267L26.9375 18.9079C26.9375 18.9079 26.9395 18.9131 26.9406 18.8986L26.7644 17.8614L26.7613 17.8469C26.7292 17.8386 26.695 17.8262 26.6639 17.8159L26.0454 17.618C26.0309 17.6138 26.0081 17.6086 25.9998 17.5993H25.9822C25.9967 17.5838 26.0039 17.5713 26.0143 17.5558C26.1148 17.4128 26.2412 17.2491 26.3458 17.1051C26.3666 17.0771 26.3863 17.0502 26.4059 17.0232C26.4163 17.0087 26.4256 16.9973 26.436 16.9828C26.4412 16.9756 26.4463 16.9694 26.4505 16.9621C26.465 16.9435 26.4619 16.9517 26.4629 16.9372C26.4329 16.8834 26.3728 16.7559 26.3417 16.6927L25.9925 15.9861C25.977 15.955 25.9811 15.9571 25.977 15.9623C25.9801 16.0265 25.977 16.1001 25.977 16.1653V16.3695C25.977 16.4503 25.9811 17.5693 25.9749 17.591L25.977 17.5931Z" fill="#E21500"/>
<path fill-rule="evenodd" clip-rule="evenodd" d="M25.978 18.4363C25.9925 18.4395 26.0796 18.4871 26.0992 18.4985C26.1397 18.5203 26.1801 18.54 26.2194 18.5617C26.2588 18.5835 26.2992 18.6032 26.3396 18.6249L26.9489 18.944L26.9406 18.8995C26.9406 18.914 26.9416 18.9036 26.9375 18.9088L26.2205 17.9276C26.179 17.8737 26.1417 17.8178 26.1013 17.7639L26.0122 17.6427C25.9873 17.6095 25.9936 17.6064 25.9791 17.6106V18.4363H25.978Z" fill="#FF1E00"/>
<path fill-rule="evenodd" clip-rule="evenodd" d="M26.4642 16.9385C26.4631 16.953 26.4652 16.9437 26.4517 16.9634C26.4465 16.9696 26.4424 16.9769 26.4372 16.9841C26.4269 16.9986 26.4186 17.01 26.4072 17.0245C26.3875 17.0515 26.3668 17.0784 26.3471 17.1064C26.2424 17.2494 26.1171 17.4141 26.0155 17.5571C26.0052 17.5726 25.9969 17.5851 25.9834 17.5996H26.001C26.0238 17.5996 26.1595 17.5509 26.1927 17.5395L27.4443 17.1292C27.4743 17.1198 27.5127 17.1043 27.5427 17.0981C27.5282 17.0898 26.746 16.9758 26.5989 16.9551C26.5771 16.952 26.4755 16.9302 26.4642 16.9396V16.9385Z" fill="#E21500"/>
<path fill-rule="evenodd" clip-rule="evenodd" d="M25.187 17.865L25.0088 18.925L25.13 18.7602C25.1497 18.7333 25.1704 18.7053 25.1901 18.6773L25.3113 18.5126C25.4678 18.2919 25.6387 18.0691 25.7962 17.8485L25.962 17.6205C25.9713 17.6081 25.9724 17.6091 25.9786 17.5967C25.9123 17.6143 25.8408 17.6402 25.7765 17.6609C25.7092 17.6827 25.6429 17.7044 25.5755 17.7252L25.2005 17.8453C25.1839 17.8526 25.1953 17.8495 25.1891 17.864L25.187 17.865Z" fill="#FF1E00"/>
<path fill-rule="evenodd" clip-rule="evenodd" d="M24.4083 17.0986L24.5554 17.2406C24.572 17.2561 24.5865 17.2727 24.6031 17.2893C24.6694 17.3525 24.7346 17.4167 24.801 17.4799C24.8092 17.4882 24.8144 17.4965 24.8237 17.5037C24.8331 17.5131 24.8403 17.5193 24.8496 17.5276L25.0931 17.7648C25.1035 17.7752 25.1874 17.8488 25.1874 17.8643C25.1936 17.8498 25.1822 17.8529 25.1988 17.8457L25.5739 17.7255C25.6412 17.7047 25.7075 17.683 25.7749 17.6612C25.8402 17.6405 25.9117 17.6146 25.9769 17.597V17.5949C25.9127 17.5783 25.8422 17.5535 25.779 17.5328C25.7148 17.511 25.6485 17.4913 25.5842 17.4706C25.3242 17.3887 25.0672 17.3027 24.8072 17.2219L24.429 17.1007C24.4228 17.0976 24.4238 17.0997 24.4207 17.0945L24.4072 17.0986H24.4083Z" fill="#E21500"/>
<path fill-rule="evenodd" clip-rule="evenodd" d="M25.4957 16.937C25.504 16.9515 25.5154 16.966 25.5257 16.9795L25.735 17.2655C25.7754 17.3214 25.8158 17.3742 25.8552 17.4302C25.8894 17.4789 25.9443 17.5473 25.9743 17.5929C25.9816 17.5711 25.9764 16.4511 25.9764 16.3713V16.1672C25.9764 16.1019 25.9795 16.0283 25.9764 15.9641C25.9661 15.9734 25.7588 16.3993 25.735 16.449C25.6946 16.5309 25.6542 16.6127 25.6148 16.6935C25.59 16.7433 25.5102 16.8976 25.4946 16.937H25.4957Z" fill="#FF1E00"/>
<path fill-rule="evenodd" clip-rule="evenodd" d="M24.4229 17.095C24.426 17.1002 24.4239 17.0982 24.4311 17.1013L24.8093 17.2225C25.0694 17.3033 25.3274 17.3903 25.5864 17.4712C25.6506 17.4908 25.7159 17.5116 25.7812 17.5333C25.8444 17.554 25.9138 17.5789 25.977 17.5955V17.5924C25.947 17.5478 25.892 17.4784 25.8579 17.4297C25.8174 17.3738 25.7781 17.3199 25.7377 17.265L25.5284 16.979C25.518 16.9655 25.5056 16.951 25.4983 16.9365L24.4239 17.095H24.4229Z" fill="#FF1E00"/>
<path fill-rule="evenodd" clip-rule="evenodd" d="M26 17.6002C26.0083 17.6085 26.0311 17.6136 26.0456 17.6188L26.6641 17.8167C26.6963 17.8271 26.7305 17.8395 26.7615 17.8478L26.7646 17.8623C26.776 17.8561 26.9449 17.6882 26.9605 17.6727L27.1076 17.5307C27.1159 17.5225 27.1231 17.5162 27.1314 17.508C27.1408 17.4997 27.1459 17.4914 27.1553 17.4821C27.2216 17.4199 27.2858 17.3556 27.3511 17.2935L27.4723 17.1754C27.4941 17.1536 27.521 17.1194 27.5459 17.1039C27.5428 17.0987 27.5459 17.1018 27.5417 17.0977C27.5117 17.1039 27.4733 17.1194 27.4433 17.1287L26.1917 17.539C26.1585 17.5504 26.0228 17.5991 26 17.6002Z" fill="#FF1E00"/>
<path fill-rule="evenodd" clip-rule="evenodd" d="M25.0089 18.9341C25.0089 18.9507 25.0078 18.9382 25.013 18.9434C25.04 18.9206 25.4223 18.7331 25.4347 18.7175C25.4181 18.7217 25.3456 18.761 25.327 18.7714C25.2907 18.7901 25.2565 18.8066 25.2213 18.8263C25.1498 18.8636 25.0793 18.8988 25.0089 18.9351V18.9341Z" fill="#FF1E00"/>
</svg>
