<svg width="28" height="28" viewBox="0 0 28 28" fill="none" xmlns="http://www.w3.org/2000/svg">
<circle cx="13.5155" cy="13.5155" r="13.5155" fill="#FF1E00"/>
<path d="M14.3107 7.15527C14.3107 6.71619 13.9547 6.36025 13.5156 6.36025C13.0765 6.36025 12.7206 6.71619 12.7206 7.15527L14.3107 7.15527ZM12.9535 19.6429C13.2639 19.9533 13.7673 19.9533 14.0778 19.6429L19.1373 14.5833C19.4478 14.2729 19.4478 13.7695 19.1373 13.459C18.8268 13.1485 18.3235 13.1485 18.013 13.459L13.5156 17.9563L9.01827 13.459C8.70779 13.1485 8.20441 13.1485 7.89393 13.459C7.58346 13.7695 7.58346 14.2729 7.89393 14.5833L12.9535 19.6429ZM12.7206 7.15527L12.7206 19.0807L14.3107 19.0807L14.3107 7.15527L12.7206 7.15527Z" fill="white"/>
</svg>
