<svg width="57" height="34" viewBox="0 0 57 34" fill="none" xmlns="http://www.w3.org/2000/svg">
<g style="mix-blend-mode:multiply">
<path d="M28.0593 33.1315C22.2575 33.0685 16.9392 31.2186 12.0107 28.1591C7.56384 25.3977 3.74567 21.9159 0.447289 17.8512C-0.101167 17.1766 -0.183339 16.6989 0.414802 15.9803C5.96051 9.30332 12.5038 4.04235 21.0134 1.68227C29.3282 -0.626216 36.9989 1.1491 44.1441 5.70682C48.6694 8.59243 52.4703 12.2883 55.9044 16.3778C56.0745 16.5823 56.1318 17.1384 55.9846 17.3142C51.1212 23.0969 45.6271 28.0922 38.5258 31.0313C35.1949 32.4092 31.7207 33.0818 28.0593 33.1334V33.1315ZM28.0249 30.8001C35.7128 30.8001 41.8471 24.6696 41.8605 16.9779C41.8739 9.21924 35.73 2.96837 28.0822 2.96263C20.3962 2.9569 14.2007 9.15808 14.1854 16.8709C14.1682 24.6104 20.3197 30.8001 28.0249 30.8001Z" fill="#681B08"/>
<path d="M37.7308 16.955C37.7098 22.3039 33.3393 26.6362 27.979 26.6228C22.6072 26.6113 18.2922 22.2007 18.3246 16.7563C18.3571 11.4265 22.7448 7.17266 28.1739 7.20897C33.4731 7.24528 37.7518 11.6081 37.7308 16.9531V16.955Z" fill="#681B08"/>
</g>
</svg>
