<svg width="13" height="13" viewBox="0 0 13 13" fill="none" xmlns="http://www.w3.org/2000/svg">
<circle cx="6.59628" cy="6.67843" r="5.91854" fill="#EA2E00"/>
<path d="M7.06404 7.55569H6.14424L5.95101 3.86877H7.25727L7.06404 7.55569ZM5.93555 8.8465C5.93555 8.60946 5.99996 8.44457 6.12878 8.35182C6.2576 8.25391 6.41477 8.20496 6.60027 8.20496C6.78063 8.20496 6.93521 8.25391 7.06404 8.35182C7.19286 8.44457 7.25727 8.60946 7.25727 8.8465C7.25727 9.07323 7.19286 9.23812 7.06404 9.34118C6.93521 9.43908 6.78063 9.48804 6.60027 9.48804C6.41477 9.48804 6.2576 9.43908 6.12878 9.34118C5.99996 9.23812 5.93555 9.07323 5.93555 8.8465Z" fill="white"/>
</svg>
