<svg width="55" height="48" viewBox="0 0 55 48" fill="none" xmlns="http://www.w3.org/2000/svg">
<path d="M27.5028 5.75182C28.6243 4.88827 29.6414 3.97698 30.7803 3.25663C33.5498 1.50133 36.5978 0.805931 39.8872 0.992527C46.1626 1.34728 52.2357 5.87549 53.7684 12.9152C54.8758 18.0021 53.6281 22.5357 50.2092 26.4673C47.2776 29.839 43.8054 32.6488 40.5334 35.6636C36.5793 39.3055 32.5784 42.8986 28.5982 46.5123C27.7911 47.2456 27.2265 47.2489 26.4227 46.5198C20.1625 40.8384 13.8686 35.1939 7.66168 29.455C5.58184 27.5326 3.62383 25.4638 2.38158 22.8308C-1.8042 13.9566 3.49982 3.20999 13.1104 1.28544C18.4938 0.207087 23.2148 1.62717 27.1787 5.45239C27.3059 5.57498 27.4376 5.69215 27.5017 5.75182H27.5028Z" fill="#681205"/>
</svg>
