<svg width="39" height="24" viewBox="0 0 39 24" fill="none" xmlns="http://www.w3.org/2000/svg">
<path d="M1.5 10.5C0.671573 10.5 0 11.1716 0 12C0 12.8284 0.671573 13.5 1.5 13.5V10.5ZM38.5607 13.0607C39.1464 12.4749 39.1464 11.5251 38.5607 10.9393L29.0147 1.3934C28.4289 0.807611 27.4792 0.807611 26.8934 1.3934C26.3076 1.97919 26.3076 2.92893 26.8934 3.51472L35.3787 12L26.8934 20.4853C26.3076 21.0711 26.3076 22.0208 26.8934 22.6066C27.4792 23.1924 28.4289 23.1924 29.0147 22.6066L38.5607 13.0607ZM1.5 13.5H37.5V10.5H1.5V13.5Z" fill="white"/>
</svg>
