<svg width="40" height="24" viewBox="0 0 40 24" fill="none" xmlns="http://www.w3.org/2000/svg">
<path d="M1.74854 10.5C0.920108 10.5 0.248535 11.1716 0.248535 12C0.248535 12.8284 0.920108 13.5 1.74854 13.5V10.5ZM38.8092 13.0607C39.395 12.4749 39.395 11.5251 38.8092 10.9393L29.2633 1.3934C28.6775 0.807611 27.7277 0.807611 27.1419 1.3934C26.5561 1.97919 26.5561 2.92893 27.1419 3.51472L35.6272 12L27.1419 20.4853C26.5561 21.0711 26.5561 22.0208 27.1419 22.6066C27.7277 23.1924 28.6775 23.1924 29.2633 22.6066L38.8092 13.0607ZM1.74854 13.5H37.7485V10.5H1.74854V13.5Z" fill="black"/>
</svg>
