<svg width="59" height="59" viewBox="0 0 59 59" fill="none" xmlns="http://www.w3.org/2000/svg">
<circle cx="29.2713" cy="29.672" r="28.9432" fill="#FF1E00"/>
<path d="M33.9021 34.3955C33.0222 34.3955 32.2349 34.7429 31.6329 35.287L23.3783 30.4824C23.4362 30.2161 23.4825 29.9499 23.4825 29.672C23.4825 29.3942 23.4362 29.1279 23.3783 28.8616L31.5403 24.1033C32.1655 24.6822 32.9875 25.0411 33.9021 25.0411C35.8239 25.0411 37.3752 23.4897 37.3752 21.5679C37.3752 19.6461 35.8239 18.0947 33.9021 18.0947C31.9802 18.0947 30.4289 19.6461 30.4289 21.5679C30.4289 21.8458 30.4752 22.112 30.5331 22.3783L22.3711 27.1366C21.7459 26.5577 20.9239 26.1988 20.0093 26.1988C18.0875 26.1988 16.5361 27.7502 16.5361 29.672C16.5361 31.5938 18.0875 33.1452 20.0093 33.1452C20.9239 33.1452 21.7459 32.7863 22.3711 32.2074L30.6141 37.0236C30.5562 37.2667 30.5215 37.5214 30.5215 37.7761C30.5215 39.6401 32.0381 41.1567 33.9021 41.1567C35.766 41.1567 37.2826 39.6401 37.2826 37.7761C37.2826 35.9122 35.766 34.3955 33.9021 34.3955Z" fill="white"/>
</svg>
