<svg width="28" height="28" viewBox="0 0 28 28" fill="none" xmlns="http://www.w3.org/2000/svg">
<circle cx="13.5155" cy="13.5155" r="13.5155" fill="#FF1E00"/>
<path d="M8.73666 16.7721C8.42618 17.0825 8.42618 17.5859 8.73666 17.8964C9.04714 18.2069 9.55052 18.2069 9.861 17.8964L8.73666 16.7721ZM18.5264 8.90169C18.5264 8.46261 18.1704 8.10666 17.7314 8.10666L10.5761 8.10666C10.137 8.10666 9.78109 8.46261 9.78109 8.90169C9.78109 9.34077 10.137 9.69672 10.5761 9.69672L16.9363 9.69672L16.9363 16.0569C16.9363 16.496 17.2923 16.852 17.7314 16.852C18.1704 16.852 18.5264 16.496 18.5264 16.0569L18.5264 8.90169ZM9.861 17.8964L18.2935 9.46386L17.1692 8.33952L8.73666 16.7721L9.861 17.8964Z" fill="white"/>
</svg>
