<svg width="59" height="59" viewBox="0 0 59 59" fill="none" xmlns="http://www.w3.org/2000/svg">
<circle cx="29.7294" cy="29.6719" r="28.9432" fill="#36AEE2"/>
<path d="M40.4547 18.643C40.1251 18.3688 39.7272 18.189 39.3036 18.1229C38.8799 18.0569 38.4463 18.1069 38.0488 18.2676L17.3012 26.6442C16.8575 26.8268 16.4798 27.1399 16.2183 27.5422C15.9567 27.9444 15.8237 28.4167 15.8368 28.8963C15.8499 29.3759 16.0086 29.8401 16.2918 30.2275C16.5749 30.6148 16.9692 30.9068 17.4222 31.0648L21.619 32.5244L23.9582 40.26C23.99 40.3633 24.0361 40.4617 24.0952 40.5522C24.1042 40.5661 24.1168 40.5764 24.1264 40.5899C24.1947 40.6852 24.2773 40.7695 24.3712 40.8397C24.3979 40.86 24.4234 40.8791 24.452 40.8972C24.5619 40.9701 24.6836 41.0234 24.8117 41.0548L24.8254 41.0559L24.8332 41.0593C24.9102 41.0749 24.9886 41.0829 25.0672 41.083C25.0748 41.083 25.0815 41.0794 25.089 41.0793C25.2076 41.0772 25.3252 41.0568 25.4376 41.0187C25.4637 41.0098 25.4861 40.9949 25.5115 40.9841C25.5953 40.9494 25.6747 40.9049 25.748 40.8515C25.8067 40.802 25.8655 40.7526 25.9242 40.7031L29.0526 37.2492L33.7186 40.8637C34.1294 41.1835 34.635 41.3573 35.1556 41.3577C35.7011 41.357 36.2297 41.1688 36.653 40.8247C37.0762 40.4805 37.3682 40.0013 37.4801 39.4674L41.2574 20.9245C41.343 20.5072 41.3135 20.0744 41.1721 19.6726C41.0307 19.2707 40.7827 18.9148 40.4547 18.643ZM25.5263 32.893C25.3658 33.0529 25.2561 33.2566 25.2109 33.4787L24.8525 35.2199L23.9448 32.2178L28.6513 29.767L25.5263 32.893ZM35.1375 39.0332L29.6236 34.7618C29.3929 34.5836 29.1035 34.4988 28.8131 34.5244C28.5227 34.5499 28.2526 34.684 28.0566 34.8998L27.0547 36.0056L27.4087 34.2847L35.6089 26.0845C35.8047 25.8891 35.9239 25.63 35.9451 25.3542C35.9663 25.0783 35.888 24.8041 35.7244 24.581C35.5608 24.358 35.3227 24.2009 35.0533 24.1382C34.7838 24.0755 34.5009 24.1114 34.2556 24.2394L22.487 30.3668L18.1752 28.789L38.9894 20.4621L35.1375 39.0332Z" fill="white"/>
</svg>
