<svg width="59" height="59" viewBox="0 0 59 59" fill="none" xmlns="http://www.w3.org/2000/svg">
<circle cx="29.5995" cy="29.672" r="28.9432" fill="#27D045"/>
<path d="M34.9253 32.0164C34.6938 31.9006 33.1887 31.206 32.9572 31.0902C32.7256 30.9745 32.4941 30.9745 32.2625 31.206C32.031 31.4376 31.5679 32.1322 31.3363 32.3637C31.2206 32.5953 30.989 32.5953 30.7575 32.4795C29.9471 32.1322 29.1367 31.6691 28.442 31.0902C27.8632 30.5114 27.2843 29.8167 26.8212 29.1221C26.7054 28.8905 26.8212 28.659 26.937 28.5432C27.0527 28.4275 27.1685 28.1959 27.4001 28.0801C27.5158 27.9644 27.6316 27.7328 27.6316 27.617C27.7474 27.5013 27.7474 27.2697 27.6316 27.154C27.5158 27.0382 26.937 25.6489 26.7054 25.07C26.5897 24.2596 26.3581 24.2596 26.1266 24.2596C26.0108 24.2596 25.7792 24.2596 25.5477 24.2596C25.3162 24.2596 24.9688 24.4912 24.8531 24.607C24.1584 25.3016 23.8111 26.112 23.8111 27.0382C23.9269 28.0801 24.2742 29.1221 24.9688 30.0483C26.2423 31.9006 27.8632 33.4057 29.8313 34.3319C30.4102 34.5634 30.8733 34.795 31.4521 34.9107C32.031 35.1423 32.6098 35.1423 33.3045 35.0265C34.1149 34.9107 34.8095 34.3319 35.2726 33.6372C35.5042 33.1741 35.5042 32.7111 35.3884 32.248C35.3884 32.248 35.1568 32.1322 34.9253 32.0164ZM37.8196 21.4811C33.3045 16.9659 26.0108 16.9659 21.4956 21.4811C17.7909 25.1858 17.0963 30.8587 19.6433 35.3738L18.0225 41.2782L24.1584 39.6574C25.895 40.5836 27.7474 41.0467 29.5997 41.0467C35.9673 41.0467 41.0613 35.9527 41.0613 29.5852C41.177 26.5751 39.9035 23.6808 37.8196 21.4811ZM34.6938 37.6893C33.1887 38.6155 31.4521 39.1943 29.5997 39.1943C27.8632 39.1943 26.2423 38.7312 24.7373 37.9208L24.39 37.6893L20.801 38.6155L21.7272 35.1423L21.4956 34.795C18.7171 30.164 20.1064 24.3754 24.6215 21.4811C29.1367 18.5868 34.9253 20.0918 37.7038 24.4912C40.4824 29.0063 39.2089 34.9107 34.6938 37.6893Z" fill="white"/>
</svg>
